<svg xmlns="http://www.w3.org/2000/svg" width="395" height="395" viewBox="0 0 395 395">
  <g fill="none" fill-rule="evenodd">
    <polygon fill="#343534" points=".684 394.317 394.907 394.317 394.907 .093 .684 .093"/>
    <path fill="#FFFFFE" d="M194.116 304.298C187.147 304.298 182.151 309.425 182.151 316.523 182.151 323.626 187.147 328.687 194.116 328.687 201.079 328.687 206.013 323.626 206.013 316.523 206.013 309.425 201.079 304.298 194.116 304.298M216.808 109.81C213.781 107.409 208.768 107.299 205.584 109.962 201.061 113.745 199.303 125.946 206.306 127.793 207.671 128.153 209.114 128.515 210.855 128.515 220.657 128.515 223.688 115.262 216.808 109.81"/>
    <path fill="#FFFFFE" d="M299.769,338.814 L290.436,338.814 C289.381,338.814 288.726,338.417 288.46,337.497 L286.484,330.723 L272.747,330.723 L270.713,337.497 C270.447,338.417 269.792,338.814 268.738,338.814 L259.67,338.814 C258.877,338.814 258.613,338.417 258.613,337.89 C258.613,337.629 258.683,337.43 258.744,337.168 L273.144,295.028 C273.407,294.176 273.998,293.846 274.988,293.846 L284.711,293.846 C285.696,293.846 286.29,294.176 286.551,295.028 L300.685,337.168 C300.751,337.43 300.82,337.629 300.82,337.89 C300.82,338.417 300.557,338.814 299.769,338.814 Z M250.938,215.088 C247.594,216.934 233.25,218.233 231.389,221.915 C229.115,226.416 234.262,234.563 236.114,238.243 C239.37,244.701 234.709,251.999 234.123,258.726 C233.932,260.895 233.25,263.629 235.752,264.487 C237.35,265.03 239.517,264.94 241.125,264.455 C242.092,264.167 245.214,262.946 245.933,263.376 C247.157,264.114 247.661,265.983 242.723,268.791 C242.041,269.18 237.478,271.51 239.908,272.385 C241.221,272.458 242.589,272.439 243.809,271.992 C244.902,271.589 245.214,270.687 246.577,271.241 C248.605,273.805 244.026,277.237 239.775,277.902 C237.92,278.195 233.878,278.656 232.004,278.621 C223.735,278.466 210.815,279.893 206.606,269.441 C204.785,264.929 204.117,246.663 198.774,244.943 C190.731,242.366 187.339,260.315 185.641,262.988 C183.773,265.927 180.513,267.525 177.343,268.454 C170.915,270.335 162.538,270.461 156.67,266.803 C155.155,265.858 152.29,263.864 150.466,264.873 C148.666,265.869 148.588,268.662 148.325,270.421 C147.99,272.686 147.68,275.08 147.326,277.266 C147.113,278.573 147.08,279.361 147.423,280.655 C147.516,281.017 147.625,281.619 147.368,281.978 C147.188,282.22 146.813,282.379 146.515,282.412 C146.114,282.467 145.692,282.39 145.305,282.291 C144.629,282.119 144.038,281.707 143.736,281.065 C142.942,279.398 142.813,277.875 142.5,276.079 C142.35,275.213 142.1,274.308 141.298,273.829 C140.796,273.531 140.131,273.581 139.728,273.991 C139.082,274.646 138.747,275.801 138.427,276.626 C137.936,277.905 137.923,279.092 137.938,280.447 C137.953,281.23 137.811,281.912 136.999,282.302 C136.32,282.63 135.529,282.252 134.902,281.844 C130.312,278.881 130.956,271.204 130.371,266.212 C129.739,260.813 129.497,247.387 133.885,244.827 C138.799,241.964 152.815,244.134 155.133,243.215 C157.039,242.459 159.68,239.156 156.347,236.067 C153.285,233.24 138.011,232.926 132.749,232.313 C128.558,231.832 124.006,230.624 120.772,227.777 C119.57,226.72 118.603,225.434 117.638,224.157 C113.003,218.012 112.333,211.556 111.711,204.073 C111.337,199.597 110.945,195.092 111.605,190.623 C111.738,189.736 112.065,188.676 112.935,188.485 C113.728,188.312 114.43,188.975 115.002,189.55 C119.521,194.124 126.001,196.693 132.433,196.418 C133.256,196.384 134.052,195.979 134.507,195.297 C137.069,191.482 128.251,187.937 126.165,186.834 C122.291,184.784 118.434,182.687 114.704,180.368 C107.805,176.071 99.108,165.369 95.899,157.565 C95.357,156.258 94.837,154.299 95.61,152.976 C97.396,149.933 101.983,154.836 103.505,156.061 C106.177,158.209 108.941,160.329 112.219,161.453 C113.499,161.889 115.903,162.533 116.722,160.962 C117.409,159.637 116.293,157.925 115.455,156.966 C111.363,152.302 109.896,152.47 105.386,148.218 C102.617,145.612 99.887,142.95 97.379,140.085 C95.63,138.088 93.893,136.001 92.854,133.531 C92.124,131.795 90.745,128.283 91.878,126.537 C93.248,124.415 95.831,129.236 96.344,130.096 C97.652,132.277 100.16,134.446 102.227,135.863 C104.209,137.231 111.233,142.38 112.529,137.857 C113.567,134.231 109.956,132.402 107.597,130.988 C103.926,128.789 100.997,125.624 98.304,122.341 C96.627,120.296 94.902,118.175 94.041,115.638 C93.672,114.551 92.783,111.45 94.168,110.76 C95.859,109.919 96.706,112.808 97.374,113.71 C98.362,115.052 99.546,116.38 100.799,117.469 C102.639,119.064 105.523,121.071 107.927,119.394 C109.045,118.614 108.513,117.251 107.933,116.292 C106.548,113.998 104.241,112.565 102.41,110.67 C100.656,108.852 98.95,106.943 97.707,104.725 C96.87,103.224 96.073,101.621 95.831,99.901 C95.678,98.762 95.54,96.813 96.513,95.982 C98.232,94.51 99.702,99.353 100.269,100.311 C101.359,102.156 103.208,103.466 105.16,104.27 C106.218,104.707 109.29,105.889 108.863,103.594 C108.527,101.796 107.24,99.917 106.054,98.685 C103.284,95.814 101.239,92.17 100.568,88.216 C100.256,86.364 99.662,84.977 100.152,83.145 C100.449,82.035 101.376,80.395 102.282,82.088 C102.758,82.993 102.936,84.005 103.32,84.939 C104.296,87.311 106.959,90.871 109.339,91.915 C110.498,92.42 111.818,91.262 111.998,90.014 C112.18,88.768 111.613,87.548 111.122,86.39 C109.667,82.956 108.486,79.096 108.707,75.331 C108.832,73.268 110.021,68.436 112.068,67.39 C113.764,66.519 114.184,67.164 114.184,69.083 C114.301,71.239 114.636,73.382 115.165,75.475 C115.512,76.822 116.147,78.363 117.504,78.672 C118.91,78.995 120.203,77.767 120.895,76.5 C123.33,72.048 122.504,66.631 124.578,61.985 C125.028,60.981 125.554,60.01 126.13,59.073 C127.536,56.796 131.26,53.879 131.331,58.479 C131.388,62.332 130.483,66.176 130.483,70.041 C130.483,89.563 133.225,109.03 138.677,127.78 C143.078,142.904 146.278,158.63 158.379,169.466 C166.51,176.745 177.574,182.479 190.031,164.32 C195.036,157.025 189.646,148.658 187.433,145.271 C182.054,137.066 185.781,121.303 188.403,113.58 C192.138,102.611 196.074,96.451 202.74,94.569 C206.696,93.453 222.756,93.893 225.932,96.475 C228.947,98.935 231.054,104.038 233.108,107.403 C235.159,110.75 243.856,121.718 249.069,122.653 C249.926,122.807 247.964,133.895 246.822,138.064 C245.528,142.777 237.656,169.263 236.104,177.668 C235.021,183.533 238.042,187.108 242.983,187.167 C246.191,186.254 249.236,184.747 251.881,182.71 C257.029,178.749 261.32,171.694 267.907,169.95 C268.743,169.729 269.601,169.599 270.471,169.524 C273.444,168.877 276.549,168.709 279.6,168.569 C280.944,168.507 282.315,168.627 283.651,168.766 C284.871,168.891 287.012,168.958 287.714,170.158 C287.943,170.557 288.013,171.023 288.039,171.479 C288.084,172.213 287.933,174.407 287.496,174.577 C286.817,174.849 285.638,174.817 284.945,174.782 C284.168,174.742 283.394,174.726 282.613,174.726 C281.336,174.724 280.063,174.761 278.788,174.828 C278.236,174.857 277.811,175.331 277.837,175.884 C277.866,176.433 278.364,176.861 278.889,176.83 C280.025,176.768 281.165,176.736 282.308,176.731 C283.066,176.726 283.827,176.736 284.581,176.766 C285.206,176.795 286.378,176.707 286.849,177.221 C287.097,177.487 287.063,178.102 287.092,178.443 C287.129,178.922 287.14,179.409 287.16,179.888 C287.188,180.41 287.225,180.937 287.251,181.462 C287.275,182 287.081,182.934 285.571,183.304 C283.33,183.858 281.085,183.725 278.796,183.815 C278.247,183.842 277.816,184.305 277.837,184.859 C277.858,185.396 278.301,185.82 278.838,185.82 C278.849,185.82 278.867,185.82 278.876,185.82 C279.387,185.799 281.341,185.719 281.341,185.719 C281.804,185.703 282.268,185.7 282.741,185.698 C283.38,185.692 284.02,185.689 284.658,185.642 C285.249,185.604 285.983,185.493 286.527,185.807 C286.617,185.854 286.847,188.503 286.479,188.967 C284.645,191.275 279.871,190.657 277.271,190.985 C274.576,191.326 270.767,192.018 269.388,192.995 C267.633,194.241 258.786,207.765 256.923,209.988 C255.517,211.883 253.627,213.603 250.938,215.088 Z M253.877,337.627 C253.877,338.282 253.353,338.809 252.695,338.809 L225.019,338.809 C224.36,338.809 223.834,338.282 223.834,337.627 L223.834,295.225 C223.834,294.568 224.36,294.043 225.019,294.043 L234.219,294.043 C234.879,294.043 235.403,294.568 235.403,295.225 L235.403,328.554 L252.695,328.554 C253.353,328.554 253.877,329.081 253.877,329.739 L253.877,337.627 Z M194.116,339.466 C181.095,339.466 169.862,330.396 169.862,316.523 C169.862,302.52 181.095,293.45 194.116,293.45 C207.064,293.45 218.304,302.52 218.304,316.523 C218.304,330.593 207.064,339.466 194.116,339.466 Z M169.125,295.686 L156.435,337.827 C156.174,338.678 155.584,339.008 154.601,339.008 L144.344,339.008 C143.355,339.008 142.767,338.678 142.502,337.827 L135.141,315.671 L135.007,315.671 L128.236,337.827 C127.971,338.678 127.386,339.008 126.395,339.008 L116.078,339.008 C115.087,339.008 114.499,338.678 114.234,337.827 L101.086,295.686 C100.887,295.031 100.821,294.045 102.005,294.045 L111.544,294.045 C112.59,294.045 113.248,294.437 113.513,295.356 L121.202,324.415 L121.33,324.415 L129.618,295.356 C129.88,294.437 130.539,294.045 131.589,294.045 L138.563,294.045 C139.609,294.045 140.202,294.437 140.528,295.356 L149.408,324.415 L149.538,324.415 L156.7,295.356 C156.964,294.437 157.624,294.045 158.674,294.045 L168.21,294.045 C169.392,294.045 169.324,295.031 169.125,295.686 Z M96.551,237.279 C94.795,237.279 93.439,234.582 92.784,232.971 C91.775,230.468 90.595,226.691 91.023,223.898 C91.228,222.559 102.745,222.41 108.787,221.425 C109.008,221.387 109.193,221.436 109.326,221.459 C110.283,221.629 110.761,223.036 111.136,224.14 C111.371,224.828 111.657,225.496 111.94,226.14 C112.312,226.984 112.661,227.785 112.895,228.634 C113.271,230.019 102.451,235.271 97.184,237.165 C96.975,237.239 96.762,237.279 96.551,237.279 Z M87.583,211.074 C87.123,209.272 86.428,201.969 87.453,201.386 C88.59,200.731 104.916,204.514 106.8,204.815 C108.201,205.036 108.823,211.322 108.344,213.079 C108.073,214.061 106.901,214.277 105.285,214.474 C104.968,214.508 101.909,215.036 100.71,215.262 C98.118,215.751 90.075,216.712 89.189,215.584 C88.26,214.407 87.935,212.461 87.583,211.074 Z M87.485,189.169 C87.613,187.558 87.896,185.972 88.278,184.401 C88.595,183.081 89.017,181.084 89.454,179.798 C90.414,176.984 92.958,178.946 94.483,180.08 C96.626,181.675 98.845,183.192 101.211,184.446 C103.368,185.591 106.822,186.901 107.738,187.862 C108.291,188.439 108.054,191.451 107.92,192.71 C107.768,194.116 107.957,196.618 106.32,197.26 C105.605,197.539 104.718,197.507 103.964,197.5 C102.492,197.486 101.037,197.265 99.573,197.121 C95.203,196.703 89.974,195.689 88.145,194.369 C86.975,193.527 87.392,190.33 87.485,189.169 Z M149.817,121.231 C149.82,120.336 149.896,119.112 150.484,118.369 C151.117,117.565 168.966,121.108 169.822,121.26 C170.803,121.434 171.888,121.157 172.106,122.277 C172.286,123.201 172.465,124.125 172.515,125.073 C172.569,126.039 172.548,127.011 172.465,127.975 C172.431,128.384 172.485,129.181 172.242,129.542 C171.055,131.345 157.362,133.331 154.053,132.993 C152.489,132.833 151.519,132.112 150.997,130.727 C150.224,128.686 149.831,126.468 149.763,124.288 C149.738,123.268 149.806,122.243 149.817,121.231 Z M174.439,144.153 C174.432,144.707 172.833,146.102 172.206,146.717 C171.162,147.75 170.064,148.698 168.951,149.632 C167.851,150.561 166.857,151.674 165.661,152.406 C164.058,153.38 162.513,154.531 160.801,155.209 C159.181,155.854 158.777,155.409 158.202,154.735 C157.49,153.902 157.008,152.843 156.468,151.868 C155.898,150.833 155.388,149.751 155.053,148.581 C154.787,147.654 154.451,146.744 154.323,145.766 C154.217,144.997 153.827,143.786 154.451,143.296 C155.208,142.708 164.412,140.215 167.204,139.419 C167.552,139.321 167.908,139.207 168.27,139.092 C169.287,138.77 170.335,138.44 171.318,138.381 C171.477,138.374 171.623,138.374 171.76,138.381 C172.247,138.418 172.905,138.408 173.095,139.311 C173.321,140.37 174.458,143.112 174.439,144.153 Z M150.79,103.165 C151.17,99.113 153.06,91.645 154.897,92.311 C156.656,92.945 176.347,101.251 176.223,103.42 C175.968,107.891 175.169,111.29 173.502,111.639 C173.171,111.711 167.655,111.716 164.166,111.508 C157.77,111.13 152.67,110.127 151.922,109.424 C150.917,108.484 150.502,106.206 150.79,103.165 Z M163.997,75.549 C165.633,73.521 167.778,71.945 169.82,70.48 C170.349,70.103 172.649,68.447 173.276,68.585 C174.94,68.955 182.96,83.302 185.702,86.436 C186.392,87.221 185.229,88.603 184.118,90.538 C183.074,92.362 181.785,93.451 180.673,93.451 C176.665,93.445 160.813,83.728 160.701,83.118 C160.238,80.506 162.475,77.434 163.997,75.549 Z M202.802,87.729 C203.363,87.785 203.545,90.7 202.677,91.126 C199.462,92.692 195.808,90.935 190.992,98.844 C187.821,104.057 186.003,110.351 184.211,116.104 C181.96,123.337 180.673,132.564 181.371,138.789 C181.625,141.017 181.839,140.245 182.102,142.492 C182.167,143.085 179.152,144.342 178.61,144.339 C178.462,144.339 178.244,144.376 178.146,144.249 C175.657,141.065 175.534,132.349 178.083,118.284 C179.261,111.786 183.625,100.04 187.353,94.382 C190.402,89.745 197.319,87.178 202.802,87.729 Z M188.754,61.874 C188.947,59.582 203.223,59.595 204.652,59.709 C208.366,60.002 207.187,63.17 206.526,65.521 C205.573,68.891 204.338,74.636 204.188,75.808 C203.925,77.802 203.818,79.86 203.121,81.723 C202.655,82.958 196.415,83.983 194.826,84.053 C193.77,84.103 192.963,84.383 192.271,83.374 C191.77,82.652 191.527,81.638 191.306,80.784 C190.859,79.109 190.641,77.397 190.333,75.696 C189.408,70.619 188.536,64.458 188.754,61.874 Z M228.927,88.278 C229.911,85.437 231.775,81.444 235.113,78.561 C237.36,76.62 240.518,75.592 244.245,75.592 C246.271,75.592 248.303,75.898 250.257,76.438 C251.394,76.755 252.509,77.149 253.584,77.637 C254.106,77.871 254.612,78.126 255.115,78.403 C255.357,78.539 255.597,78.678 255.837,78.824 C256.007,78.928 256.358,79.069 256.473,79.242 C256.563,79.383 256.353,79.455 256.252,79.468 C255.943,79.508 255.603,79.447 255.299,79.413 C254.361,79.314 253.445,79.346 252.509,79.404 C250.232,79.551 247.897,79.95 246.05,81.398 C240.848,85.488 240.358,97.135 241.557,102.233 C241.764,103.106 242.384,105.761 244.607,106.21 C247.243,106.74 248.771,103.66 249.753,101.68 C249.895,101.389 250.027,101.115 250.155,100.883 C252.658,96.198 255.996,89.888 257.12,91.129 C257.881,91.97 252.466,116.756 250.482,119.722 C249.564,121.093 242.043,114.756 237.808,108.95 C234.658,104.635 233.548,101.514 230.481,97.14 C230.018,96.48 227.739,94.145 227.731,93.261 C227.729,92.657 228.697,88.933 228.927,88.278 Z M269.547,148.069 C269.627,147.162 269.84,145.761 270.196,144.76 C270.437,144.084 271.126,143.676 271.845,143.756 L285.233,145.271 C286.421,145.436 287.325,147.041 287.387,148.98 C287.528,153.234 287.533,157.504 287.4,161.758 C287.376,162.52 287.314,163.375 286.947,163.843 C286.665,164.205 271.808,167.943 269.632,161.503 C268.445,157.912 269.169,152.416 269.547,148.069 Z M270.146,131.297 C270.13,129.138 271.985,129.596 273.477,129.79 C276.354,130.166 279.094,130.738 282.001,130.839 C283.42,130.89 287.325,130.951 287.147,133.179 C286.878,136.433 286.463,140.213 285.888,140.325 C284.447,140.612 270.705,140.141 269.744,138.123 C269.688,138.014 269.483,136.446 269.462,136.273 L270.146,131.297 Z M273.748,97.367 C274.025,95.655 274.009,93.067 274.595,91.225 C274.92,90.203 275.611,89.572 276.357,89.566 C277.451,89.556 278.687,89.638 279.68,90.205 C280.132,90.463 280.438,91.129 280.438,91.869 C280.438,91.869 277.664,125.608 277.23,126.044 C276.74,126.534 271.919,125.855 271.507,124.913 C271.166,124.136 273.271,100.285 273.748,97.367 Z M288.614,108.854 C288.332,111.548 288.039,114.336 287.661,116.942 C287.598,117.376 287.539,117.818 287.475,118.257 C287.2,120.283 286.859,124.671 286.298,125.943 C285.75,127.187 281.799,126.297 281.189,125.571 C280.531,124.788 282.773,94.579 284.126,91.403 C284.472,90.594 285.195,90.432 286.059,90.557 C287.012,90.7 289.77,91.318 290.036,92.606 C290.283,93.81 289.961,98.711 289.615,100.737 C289.498,101.432 289.392,102.076 289.325,102.58 C289.062,104.648 288.832,106.786 288.614,108.854 Z M270.508,273.927 C270.602,273.086 270.671,270.581 271.035,270.331 C271.347,270.11 286.276,270.733 287.081,270.786 C287.855,270.836 287.848,270.807 288.311,271.845 C288.678,272.67 288.731,273.736 288.758,274.7 C288.773,275.2 288.665,275.695 288.619,276.19 C288.531,277.209 288.486,278.155 287.379,278.469 C286.617,278.687 285.803,278.605 285.021,278.616 C282.397,278.65 279.754,278.269 277.146,278.035 C275.721,277.907 274.291,277.907 272.861,277.833 C271.834,277.78 271.251,277.521 270.665,276.563 C270.319,275.974 270.532,274.609 270.508,273.927 Z M287.081,266.212 C284.094,267.291 271.994,266.449 271.565,265.661 C270.372,263.457 270.301,247.665 270.691,247.033 C271.765,245.29 284.344,246.03 284.344,246.03 C285.635,246.2 287.121,246.565 287.802,248.431 C289.099,251.961 288.284,265.776 287.081,266.212 Z M286.128,203.788 C286.21,205.547 286.316,207.341 286.423,209.16 C286.801,215.526 287.422,220.182 286.847,227.04 C286.807,227.581 286.564,228.048 286.227,228.211 C285.371,228.631 281.959,229.154 281.77,227.908 C281.484,226.094 281.325,223.946 281.227,222.362 C281.037,219.481 281.026,197.207 281.182,196.362 C281.356,195.42 284.839,194.967 285.584,195.183 C286.639,195.487 286.104,199.597 286.104,202.094 L286.128,203.788 Z M272.736,233.605 C273.019,233.616 273.285,233.618 273.524,233.594 C276.432,233.331 279.323,233.594 282.23,233.653 C284.097,233.687 287.24,233.429 288.05,234.648 C288.113,234.742 288.164,239.81 288.18,240.044 C288.303,242.526 286.947,241.943 285.681,242.074 C285.358,242.108 285.041,242.105 284.722,242.079 C283.316,241.957 276.682,241.9 274.648,241.844 C272.396,241.781 270.394,243.194 270.469,237.172 C270.506,234.017 271.102,233.693 271.701,233.628 C272.047,233.594 272.401,233.602 272.736,233.605 Z M278.319,210.547 C278.58,216.566 278.727,222.314 277.582,228.243 C277.565,228.293 277.553,228.338 277.531,228.381 C277.098,229.231 272.883,229.788 272.502,228.531 C272.095,227.18 272.289,214.766 272.223,212.048 C272.172,209.961 271.874,198.194 272.172,197.033 C272.491,195.79 276.956,196.128 277.303,196.874 C278.865,200.294 278.146,206.511 278.319,210.547 Z M274.419,80.9 C274.44,80.482 274.563,80.078 274.632,79.668 C274.709,79.237 274.744,78.928 274.914,78.523 C274.973,78.387 275.037,78.251 275.127,78.156 C275.287,77.975 275.505,77.948 275.705,77.937 C277.638,77.81 279.552,78.188 281.453,78.566 C282.568,78.79 283.689,79.013 284.813,79.237 C285.843,79.442 286.854,79.705 287.903,79.764 C288.183,79.78 288.468,79.804 288.747,79.852 C289.86,80.033 290.568,80.443 290.909,81.098 C290.957,81.188 290.968,81.305 290.946,81.42 L290.883,84.825 C290.766,85.416 290.638,87.136 290.478,87.657 C290.475,87.673 290.419,87.7 290.406,87.706 C290.033,87.908 289.541,87.825 289.154,87.817 C288.412,87.791 277.084,86.15 276.387,86.028 C275.71,85.911 274.973,85.756 274.632,84.843 C274.36,84.114 274.382,81.712 274.419,80.9 Z M197.798,0.093 C88.94,0.093 0.684,88.342 0.684,197.207 C0.684,306.063 88.94,394.317 197.798,394.317 C306.659,394.317 394.907,306.063 394.907,197.207 C394.907,88.342 306.659,0.093 197.798,0.093 L197.798,0.093 Z"/>
    <polyline fill="#FFFFFE" points="275.574 321.459 283.727 321.459 279.72 307.85 275.574 321.459"/>
  </g>
</svg>
