<svg xmlns="http://www.w3.org/2000/svg" xmlns:xlink="http://www.w3.org/1999/xlink" width="395" height="395" viewBox="0 0 395 395">
  <defs>
    <polygon id="wola_icon_blue-a" points="0 394.94 0 .776 394.224 .776 394.224 394.94"/>
  </defs>
  <g fill="none" fill-rule="evenodd">
    <path fill="#00ACDC" d="M193.433,304.981 C186.464,304.981 181.467,310.108 181.467,317.206 C181.467,324.309 186.464,329.37 193.433,329.37 C200.396,329.37 205.329,324.309 205.329,317.206 C205.329,310.108 200.396,304.981 193.433,304.981"/>
    <mask id="wola_icon_blue-b" fill="#fff">
      <use xlink:href="#wola_icon_blue-a"/>
    </mask>
    <path fill="#00ACDC" d="M216.124,110.493 C213.098,108.091 208.084,107.982 204.9,110.645 C200.377,114.427 198.619,126.629 205.622,128.476 C206.987,128.836 208.431,129.198 210.172,129.198 C219.974,129.198 223.004,115.945 216.124,110.493" mask="url(#wola_icon_blue-b)"/>
    <path fill="#00ACDC" d="M299.085,339.497 L289.752,339.497 C288.697,339.497 288.042,339.1 287.776,338.179 L285.801,331.406 L272.063,331.406 L270.029,338.179 C269.764,339.1 269.108,339.497 268.055,339.497 L258.986,339.497 C258.193,339.497 257.93,339.1 257.93,338.573 C257.93,338.312 257.999,338.113 258.061,337.851 L272.46,295.711 C272.724,294.859 273.314,294.529 274.305,294.529 L284.027,294.529 C285.013,294.529 285.606,294.859 285.867,295.711 L300.001,337.851 C300.067,338.113 300.137,338.312 300.137,338.573 C300.137,339.1 299.873,339.497 299.085,339.497 Z M250.254,215.771 C246.91,217.617 232.566,218.916 230.705,222.597 C228.432,227.099 233.578,235.246 235.431,238.925 C238.687,245.383 234.025,252.681 233.439,259.409 C233.248,261.578 232.566,264.312 235.068,265.17 C236.666,265.713 238.833,265.623 240.441,265.137 C241.408,264.85 244.53,263.629 245.249,264.059 C246.474,264.797 246.978,266.666 242.039,269.474 C241.357,269.863 236.794,272.193 239.225,273.068 C240.537,273.14 241.905,273.122 243.125,272.674 C244.219,272.272 244.53,271.37 245.894,271.923 C247.922,274.488 243.343,277.92 239.092,278.585 C237.236,278.878 233.194,279.339 231.32,279.303 C223.052,279.149 210.132,280.576 205.923,270.124 C204.102,265.612 203.434,247.345 198.09,245.626 C190.047,243.048 186.656,260.998 184.957,263.671 C183.09,266.61 179.83,268.208 176.659,269.136 C170.231,271.018 161.854,271.144 155.987,267.486 C154.472,266.541 151.606,264.547 149.782,265.555 C147.982,266.551 147.904,269.344 147.642,271.104 C147.307,273.369 146.996,275.762 146.642,277.949 C146.429,279.255 146.396,280.044 146.739,281.338 C146.833,281.7 146.941,282.301 146.685,282.661 C146.505,282.903 146.13,283.062 145.832,283.094 C145.431,283.15 145.009,283.073 144.622,282.974 C143.945,282.801 143.354,282.389 143.052,281.748 C142.259,280.081 142.13,278.558 141.817,276.761 C141.667,275.896 141.416,274.991 140.615,274.511 C140.113,274.214 139.447,274.263 139.044,274.673 C138.398,275.329 138.063,276.484 137.744,277.309 C137.252,278.588 137.239,279.775 137.255,281.13 C137.27,281.913 137.127,282.594 136.315,282.985 C135.636,283.313 134.846,282.935 134.219,282.527 C129.628,279.564 130.272,271.886 129.688,266.895 C129.055,261.496 128.813,248.07 133.202,245.509 C138.115,242.647 152.132,244.817 154.449,243.898 C156.355,243.142 158.996,239.839 155.663,236.75 C152.602,233.922 137.327,233.609 132.065,232.996 C127.875,232.514 123.322,231.306 120.089,228.46 C118.887,227.403 117.919,226.117 116.954,224.839 C112.319,218.695 111.649,212.239 111.028,204.755 C110.654,200.28 110.261,195.775 110.921,191.305 C111.055,190.419 111.382,189.359 112.251,189.168 C113.044,188.995 113.746,189.657 114.318,190.233 C118.837,194.806 125.317,197.376 131.75,197.101 C132.572,197.067 133.368,196.662 133.823,195.98 C136.386,192.165 127.567,188.619 125.481,187.517 C121.607,185.467 117.75,183.369 114.021,181.05 C107.121,176.754 98.425,166.051 95.215,158.248 C94.674,156.941 94.153,154.982 94.927,153.658 C96.713,150.615 101.3,155.519 102.821,156.744 C105.493,158.892 108.258,161.011 111.535,162.135 C112.815,162.572 115.22,163.216 116.038,161.645 C116.725,160.319 115.609,158.608 114.771,157.649 C110.679,152.985 109.212,153.153 104.702,148.901 C101.934,146.295 99.204,143.632 96.696,140.768 C94.946,138.771 93.21,136.684 92.171,134.214 C91.44,132.478 90.061,128.966 91.194,127.22 C92.564,125.098 95.147,129.919 95.66,130.779 C96.969,132.96 99.477,135.129 101.543,136.546 C103.525,137.914 110.55,143.063 111.845,138.54 C112.883,134.914 109.272,133.085 106.914,131.671 C103.242,129.472 100.313,126.306 97.621,123.024 C95.943,120.979 94.218,118.858 93.357,116.32 C92.988,115.234 92.099,112.132 93.485,111.443 C95.176,110.602 96.022,113.49 96.69,114.393 C97.678,115.734 98.863,117.063 100.115,118.152 C101.955,119.747 104.839,121.754 107.244,120.077 C108.362,119.297 107.829,117.934 107.249,116.975 C105.864,114.68 103.558,113.248 101.726,111.353 C99.973,109.534 98.267,107.626 97.023,105.408 C96.186,103.906 95.39,102.304 95.147,100.584 C94.995,99.444 94.856,97.496 95.829,96.665 C97.549,95.193 99.019,100.035 99.585,100.994 C100.676,102.839 102.524,104.149 104.476,104.953 C105.534,105.389 108.606,106.571 108.179,104.276 C107.844,102.479 106.557,100.6 105.371,99.367 C102.601,96.497 100.556,92.853 99.885,88.899 C99.572,87.047 98.978,85.659 99.468,83.828 C99.765,82.717 100.693,81.078 101.598,82.771 C102.075,83.676 102.252,84.688 102.637,85.622 C103.612,87.994 106.276,91.553 108.656,92.597 C109.814,93.103 111.134,91.945 111.314,90.696 C111.497,89.45 110.929,88.231 110.438,87.073 C108.983,83.639 107.803,79.778 108.023,76.014 C108.148,73.951 109.337,69.119 111.385,68.072 C113.081,67.202 113.5,67.846 113.5,69.766 C113.617,71.922 113.952,74.065 114.481,76.158 C114.828,77.505 115.463,79.046 116.821,79.355 C118.227,79.677 119.519,78.45 120.211,77.183 C122.646,72.731 121.821,67.314 123.895,62.668 C124.345,61.664 124.87,60.693 125.447,59.755 C126.853,57.479 130.577,54.562 130.647,59.162 C130.705,63.014 129.799,66.859 129.799,70.724 C129.799,90.246 132.542,109.713 137.994,128.463 C142.395,143.587 145.595,159.313 157.696,170.149 C165.826,177.427 176.891,183.162 189.347,165.003 C194.353,157.708 188.963,149.34 186.749,145.954 C181.37,137.749 185.097,121.985 187.719,114.262 C191.455,103.294 195.391,97.133 202.057,95.252 C206.013,94.136 222.072,94.575 225.248,97.157 C228.264,99.617 230.37,104.721 232.425,108.086 C234.476,111.432 243.173,122.401 248.386,123.336 C249.242,123.49 247.28,134.578 246.139,138.747 C244.845,143.46 236.973,169.946 235.42,178.351 C234.337,184.216 237.358,187.791 242.3,187.85 C245.508,186.937 248.553,185.43 251.197,183.393 C256.346,179.432 260.637,172.377 267.224,170.633 C268.06,170.412 268.917,170.282 269.787,170.207 C272.761,169.56 275.865,169.392 278.916,169.252 C280.261,169.19 281.632,169.31 282.968,169.448 C284.188,169.573 286.328,169.64 287.03,170.84 C287.26,171.24 287.329,171.706 287.355,172.161 C287.4,172.896 287.249,175.089 286.813,175.26 C286.134,175.532 284.954,175.5 284.262,175.465 C283.484,175.425 282.71,175.409 281.93,175.409 C280.652,175.406 279.379,175.444 278.104,175.51 C277.553,175.54 277.127,176.013 277.153,176.567 C277.183,177.116 277.681,177.544 278.205,177.512 C279.342,177.451 280.481,177.419 281.624,177.414 C282.383,177.408 283.144,177.419 283.897,177.448 C284.522,177.478 285.694,177.39 286.165,177.903 C286.413,178.17 286.379,178.785 286.408,179.126 C286.445,179.605 286.456,180.092 286.477,180.571 C286.504,181.093 286.541,181.62 286.567,182.145 C286.592,182.682 286.397,183.617 284.888,183.987 C282.646,184.541 280.401,184.407 278.112,184.498 C277.563,184.525 277.133,184.988 277.153,185.542 C277.175,186.079 277.617,186.503 278.154,186.503 C278.165,186.503 278.184,186.503 278.192,186.503 C278.703,186.482 280.657,186.401 280.657,186.401 C281.12,186.385 281.584,186.383 282.058,186.38 C282.696,186.375 283.336,186.372 283.975,186.324 C284.565,186.287 285.3,186.175 285.844,186.489 C285.934,186.537 286.163,189.186 285.795,189.65 C283.961,191.958 279.188,191.34 276.587,191.668 C273.893,192.008 270.083,192.7 268.704,193.677 C266.949,194.923 258.103,208.448 256.239,210.671 C254.833,212.566 252.943,214.286 250.254,215.771 Z M253.193,338.31 C253.193,338.964 252.669,339.492 252.012,339.492 L224.335,339.492 C223.677,339.492 223.15,338.964 223.15,338.31 L223.15,295.908 C223.15,295.251 223.677,294.726 224.335,294.726 L233.535,294.726 C234.195,294.726 234.72,295.251 234.72,295.908 L234.72,329.237 L252.012,329.237 C252.669,329.237 253.193,329.763 253.193,330.422 L253.193,338.31 Z M193.433,340.149 C180.412,340.149 169.178,331.079 169.178,317.206 C169.178,303.203 180.412,294.132 193.433,294.132 C206.381,294.132 217.62,303.203 217.62,317.206 C217.62,331.276 206.381,340.149 193.433,340.149 Z M168.442,296.369 L155.751,338.509 C155.49,339.361 154.9,339.691 153.917,339.691 L143.661,339.691 C142.671,339.691 142.083,339.361 141.818,338.509 L134.457,316.354 L134.324,316.354 L127.553,338.509 C127.288,339.361 126.702,339.691 125.711,339.691 L115.394,339.691 C114.404,339.691 113.815,339.361 113.55,338.509 L100.403,296.369 C100.203,295.714 100.138,294.728 101.321,294.728 L110.86,294.728 C111.906,294.728 112.564,295.12 112.829,296.039 L120.519,325.097 L120.646,325.097 L128.934,296.039 C129.196,295.12 129.855,294.728 130.906,294.728 L137.879,294.728 C138.926,294.728 139.518,295.12 139.844,296.039 L148.724,325.097 L148.854,325.097 L156.016,296.039 C156.281,295.12 156.94,294.728 157.99,294.728 L167.526,294.728 C168.708,294.728 168.641,295.714 168.442,296.369 Z M95.868,237.962 C94.112,237.962 92.755,235.264 92.101,233.654 C91.092,231.151 89.911,227.374 90.339,224.581 C90.544,223.242 102.062,223.092 108.104,222.108 C108.324,222.07 108.509,222.119 108.643,222.142 C109.6,222.312 110.078,223.718 110.453,224.823 C110.687,225.51 110.973,226.178 111.257,226.823 C111.628,227.667 111.977,228.467 112.211,229.317 C112.588,230.702 101.767,235.954 96.5,237.847 C96.291,237.922 96.078,237.962 95.868,237.962 Z M86.9,211.756 C86.439,209.955 85.745,202.652 86.77,202.069 C87.906,201.414 104.232,205.197 106.116,205.498 C107.518,205.718 108.139,212.005 107.66,213.761 C107.39,214.744 106.217,214.96 104.601,215.157 C104.284,215.191 101.226,215.718 100.026,215.945 C97.435,216.434 89.392,217.395 88.505,216.267 C87.576,215.089 87.251,213.144 86.9,211.756 Z M86.801,189.852 C86.929,188.241 87.213,186.654 87.595,185.084 C87.912,183.763 88.333,181.767 88.77,180.481 C89.73,177.667 92.275,179.629 93.799,180.763 C95.942,182.358 98.161,183.875 100.528,185.129 C102.685,186.274 106.139,187.584 107.055,188.545 C107.607,189.122 107.37,192.133 107.237,193.393 C107.084,194.798 107.273,197.301 105.637,197.943 C104.922,198.222 104.034,198.19 103.281,198.182 C101.809,198.169 100.354,197.948 98.889,197.804 C94.52,197.386 89.29,196.372 87.461,195.051 C86.291,194.21 86.708,191.012 86.801,189.852 Z M149.134,121.914 C149.137,121.019 149.212,119.795 149.801,119.052 C150.433,118.248 168.282,121.791 169.138,121.943 C170.119,122.116 171.204,121.839 171.422,122.96 C171.602,123.884 171.782,124.808 171.831,125.755 C171.886,126.722 171.864,127.693 171.782,128.657 C171.747,129.067 171.802,129.863 171.558,130.225 C170.371,132.028 156.679,134.014 153.37,133.675 C151.806,133.516 150.835,132.795 150.313,131.41 C149.54,129.368 149.147,127.151 149.08,124.97 C149.054,123.95 149.122,122.925 149.134,121.914 Z M173.756,144.836 C173.748,145.389 172.149,146.785 171.522,147.4 C170.479,148.432 169.38,149.38 168.268,150.315 C167.167,151.244 166.174,152.357 164.977,153.089 C163.375,154.063 161.829,155.214 160.117,155.892 C158.497,156.536 158.094,156.092 157.519,155.418 C156.807,154.585 156.325,153.526 155.784,152.551 C155.215,151.515 154.705,150.434 154.369,149.263 C154.103,148.337 153.768,147.426 153.64,146.449 C153.533,145.68 153.144,144.468 153.768,143.979 C154.525,143.39 163.729,140.898 166.52,140.102 C166.869,140.004 167.224,139.889 167.586,139.775 C168.603,139.453 169.652,139.123 170.634,139.064 C170.793,139.056 170.939,139.056 171.076,139.064 C171.563,139.101 172.221,139.09 172.412,139.993 C172.638,141.053 173.774,143.795 173.756,144.836 Z M150.106,103.848 C150.486,99.796 152.376,92.328 154.214,92.994 C155.972,93.628 175.664,101.934 175.54,104.103 C175.284,108.573 174.485,111.973 172.819,112.322 C172.487,112.394 166.971,112.399 163.482,112.191 C157.086,111.813 151.987,110.81 151.238,110.107 C150.233,109.167 149.818,106.888 150.106,103.848 Z M163.313,76.232 C164.949,74.204 167.095,72.628 169.137,71.163 C169.666,70.785 171.965,69.13 172.592,69.268 C174.256,69.638 182.276,83.984 185.019,87.118 C185.708,87.903 184.545,89.285 183.435,91.221 C182.391,93.045 181.101,94.133 179.99,94.133 C175.981,94.128 160.129,84.411 160.018,83.801 C159.554,81.189 161.792,78.117 163.313,76.232 Z M202.118,88.412 C202.68,88.468 202.861,91.383 201.993,91.809 C198.778,93.375 195.125,91.617 190.309,99.527 C187.138,104.74 185.319,111.033 183.528,116.786 C181.277,124.02 179.99,133.247 180.687,139.471 C180.941,141.7 181.156,140.927 181.418,143.174 C181.483,143.768 178.468,145.025 177.926,145.022 C177.778,145.022 177.56,145.059 177.462,144.932 C174.974,141.748 174.85,133.031 177.399,118.966 C178.577,112.468 182.942,100.722 186.669,95.065 C189.719,90.427 196.635,87.861 202.118,88.412 Z M188.071,62.556 C188.264,60.264 202.539,60.277 203.969,60.392 C207.683,60.685 206.503,63.853 205.843,66.204 C204.89,69.574 203.654,75.319 203.505,76.49 C203.241,78.484 203.135,80.543 202.438,82.406 C201.972,83.641 195.731,84.666 194.142,84.736 C193.086,84.786 192.28,85.066 191.588,84.057 C191.086,83.335 190.844,82.321 190.623,81.466 C190.175,79.792 189.957,78.08 189.649,76.378 C188.725,71.302 187.853,65.141 188.071,62.556 Z M228.243,88.961 C229.228,86.12 231.092,82.127 234.43,79.243 C236.677,77.302 239.834,76.275 243.562,76.275 C245.588,76.275 247.619,76.581 249.573,77.121 C250.71,77.438 251.825,77.832 252.9,78.32 C253.423,78.554 253.929,78.809 254.432,79.086 C254.674,79.222 254.913,79.361 255.153,79.507 C255.323,79.611 255.675,79.752 255.789,79.925 C255.88,80.066 255.669,80.138 255.568,80.151 C255.26,80.191 254.919,80.13 254.615,80.095 C253.678,79.997 252.762,80.028 251.825,80.087 C249.549,80.233 247.214,80.633 245.366,82.081 C240.164,86.171 239.675,97.818 240.873,102.916 C241.08,103.789 241.7,106.443 243.924,106.893 C246.56,107.423 248.087,104.343 249.069,102.362 C249.211,102.072 249.344,101.798 249.472,101.566 C251.975,96.88 255.313,90.571 256.437,91.812 C257.197,92.653 251.782,117.439 249.799,120.404 C248.881,121.776 241.359,115.439 237.124,109.633 C233.975,105.318 232.864,102.197 229.798,97.823 C229.334,97.163 227.056,94.828 227.048,93.944 C227.045,93.34 228.014,89.615 228.243,88.961 Z M268.863,148.752 C268.943,147.844 269.156,146.444 269.513,145.443 C269.753,144.767 270.442,144.359 271.161,144.439 L284.55,145.954 C285.737,146.119 286.642,147.724 286.703,149.663 C286.845,153.917 286.85,158.187 286.717,162.441 C286.692,163.203 286.631,164.057 286.264,164.526 C285.981,164.888 271.124,168.626 268.948,162.186 C267.762,158.594 268.485,153.099 268.863,148.752 Z M269.463,131.98 C269.446,129.821 271.302,130.278 272.793,130.473 C275.671,130.848 278.41,131.421 281.317,131.522 C282.736,131.572 286.642,131.633 286.464,133.862 C286.194,137.115 285.779,140.896 285.204,141.007 C283.764,141.295 270.021,140.824 269.061,138.806 C269.005,138.697 268.8,137.129 268.778,136.956 L269.463,131.98 Z M273.064,98.049 C273.342,96.337 273.325,93.75 273.911,91.907 C274.236,90.885 274.928,90.254 275.674,90.249 C276.768,90.238 278.003,90.321 278.996,90.888 C279.448,91.146 279.755,91.812 279.755,92.552 C279.755,92.552 276.98,126.291 276.547,126.727 C276.057,127.217 271.235,126.538 270.823,125.596 C270.482,124.818 272.588,100.967 273.064,98.049 Z M287.931,109.537 C287.648,112.231 287.355,115.019 286.978,117.625 C286.914,118.059 286.855,118.501 286.791,118.94 C286.517,120.966 286.176,125.354 285.614,126.626 C285.066,127.869 281.115,126.98 280.506,126.254 C279.848,125.47 282.09,95.262 283.442,92.086 C283.788,91.276 284.512,91.114 285.375,91.239 C286.328,91.383 289.086,92.001 289.353,93.289 C289.6,94.493 289.277,99.394 288.932,101.42 C288.814,102.115 288.708,102.759 288.642,103.262 C288.378,105.331 288.148,107.468 287.931,109.537 Z M269.824,274.61 C269.918,273.769 269.987,271.263 270.352,271.013 C270.663,270.793 285.593,271.416 286.397,271.468 C287.172,271.519 287.164,271.49 287.627,272.528 C287.994,273.353 288.048,274.419 288.074,275.382 C288.09,275.882 287.981,276.378 287.936,276.873 C287.848,277.892 287.803,278.838 286.695,279.152 C285.934,279.37 285.119,279.288 284.337,279.298 C281.714,279.333 279.07,278.952 276.462,278.717 C275.037,278.589 273.607,278.589 272.178,278.515 C271.15,278.463 270.567,278.204 269.981,277.246 C269.636,276.657 269.849,275.292 269.824,274.61 Z M286.397,266.895 C283.41,267.973 271.311,267.131 270.882,266.343 C269.688,264.139 269.617,248.347 270.008,247.715 C271.081,245.972 283.66,246.713 283.66,246.713 C284.951,246.882 286.438,247.248 287.118,249.114 C288.415,252.644 287.601,266.459 286.397,266.895 Z M285.444,204.47 C285.526,206.23 285.633,208.024 285.739,209.842 C286.117,216.209 286.738,220.865 286.163,227.722 C286.123,228.263 285.881,228.731 285.543,228.894 C284.688,229.314 281.275,229.837 281.086,228.59 C280.801,226.777 280.642,224.629 280.543,223.045 C280.354,220.164 280.343,197.889 280.498,197.045 C280.673,196.103 284.155,195.65 284.9,195.866 C285.955,196.17 285.42,200.28 285.42,202.777 L285.444,204.47 Z M272.053,234.288 C272.335,234.298 272.602,234.3 272.841,234.277 C275.748,234.013 278.64,234.277 281.547,234.336 C283.413,234.37 286.557,234.112 287.366,235.331 C287.43,235.424 287.48,240.493 287.496,240.727 C287.619,243.209 286.264,242.626 284.997,242.756 C284.675,242.791 284.357,242.788 284.038,242.761 C282.633,242.639 275.998,242.583 273.965,242.527 C271.712,242.464 269.71,243.877 269.785,237.855 C269.822,234.7 270.418,234.376 271.018,234.311 C271.363,234.277 271.718,234.285 272.053,234.288 Z M277.636,211.23 C277.896,217.249 278.043,222.997 276.898,228.925 C276.882,228.976 276.869,229.021 276.848,229.064 C276.414,229.914 272.199,230.47 271.818,229.214 C271.411,227.863 271.605,215.449 271.539,212.731 C271.488,210.644 271.19,198.877 271.488,197.716 C271.808,196.473 276.272,196.811 276.619,197.556 C278.182,200.977 277.463,207.194 277.636,211.23 Z M273.735,81.583 C273.757,81.165 273.879,80.761 273.948,80.351 C274.025,79.92 274.061,79.611 274.23,79.206 C274.289,79.07 274.354,78.934 274.443,78.839 C274.604,78.657 274.821,78.631 275.021,78.62 C276.954,78.492 278.868,78.871 280.77,79.249 C281.885,79.472 283.006,79.696 284.129,79.92 C285.159,80.125 286.171,80.388 287.22,80.446 C287.499,80.462 287.784,80.486 288.063,80.534 C289.177,80.716 289.885,81.126 290.226,81.78 C290.273,81.871 290.284,81.988 290.263,82.103 L290.199,85.507 C290.082,86.098 289.954,87.819 289.794,88.34 C289.791,88.356 289.735,88.383 289.723,88.388 C289.35,88.591 288.857,88.508 288.471,88.5 C287.729,88.473 276.4,86.833 275.703,86.711 C275.026,86.594 274.289,86.439 273.948,85.526 C273.677,84.797 273.698,82.395 273.735,81.583 Z M197.114,0.776 C88.256,0.776 0,89.024 0,197.889 C0,306.746 88.256,395 197.114,395 C305.976,395 394.224,306.746 394.224,197.889 C394.224,89.024 305.976,0.776 197.114,0.776 L197.114,0.776 Z" mask="url(#wola_icon_blue-b)"/>
    <polyline fill="#00ACDC" points="274.891 322.142 283.043 322.142 279.036 308.533 274.891 322.142"/>
  </g>
</svg>
